<svg id="Capa_1" enable-background="new 0 0 512 512" height="512" viewBox="0 0 512 512" width="512" xmlns="http://www.w3.org/2000/svg"><g><g><g fill="#7c84e8"><path d="m339.419 54.41c53.296 22.041 96.415 65.284 118.301 118.641 2.38 5.802 7.979 9.312 13.884 9.312 1.896 0 3.824-.362 5.687-1.126 7.665-3.144 11.329-11.906 8.186-19.57-24.899-60.705-73.957-109.903-134.592-134.979-7.657-3.167-16.427.474-19.594 8.129s.473 16.427 8.128 19.593z"/><path d="m477.33 331.745c-7.655-3.166-16.428.474-19.594 8.129-22.041 53.296-65.283 96.415-118.64 118.301-7.664 3.144-11.329 11.906-8.186 19.57 2.38 5.802 7.979 9.312 13.884 9.312 1.896 0 3.823-.362 5.687-1.126 60.705-24.899 109.902-73.957 134.979-134.592 3.165-7.655-.475-16.428-8.13-19.594z"/></g><g fill="#8bbbfe"><path d="m35.059 180.856c1.875.775 3.816 1.143 5.727 1.143 5.889 0 11.477-3.491 13.867-9.271 22.041-53.296 65.283-96.415 118.641-118.301 7.665-3.144 11.329-11.906 8.186-19.57-3.145-7.664-11.907-11.331-19.57-8.186-60.707 24.899-109.904 73.956-134.98 134.591-3.166 7.655.473 16.428 8.129 19.594z"/><path d="m172.97 458.191c-53.297-22.042-96.416-65.284-118.301-118.641-3.145-7.664-11.903-11.33-19.57-8.186-7.664 3.144-11.329 11.906-8.186 19.57 24.898 60.704 73.955 109.902 134.592 134.979 1.875.775 3.816 1.143 5.727 1.143 5.889 0 11.477-3.491 13.867-9.271 3.166-7.655-.474-16.428-8.129-19.594z"/></g></g><g><path d="m247.642 109.201v380.243l8.358 22.556c7.271 0 13.494-5.214 14.769-12.373l31.362-176.284 54.033 54.033c2.929 2.929 6.768 4.394 10.606 4.394s7.678-1.464 10.606-4.394c5.858-5.857 5.858-15.355 0-21.213l-54.033-54.033 176.284-31.362c7.159-1.273 12.373-7.497 12.373-14.768s-5.214-13.495-12.373-14.768l-176.284-31.362 54.033-54.033c5.858-5.858 5.858-15.355 0-21.213-5.857-5.858-15.355-5.858-21.213 0l-54.033 54.033-31.361-176.284c-1.275-7.159-7.498-12.373-14.769-12.373-2.747 0-5.34 20.75-7.575 22.064z" fill="#7c84e8"/><g><path d="m256 271.361v-271.361c-7.271 0-13.494 5.214-14.769 12.373l-31.361 176.284-54.033-54.033c-5.857-5.858-15.355-5.858-21.213 0s-5.858 15.355 0 21.213l54.033 54.033-176.284 31.362c-7.159 1.273-12.373 7.497-12.373 14.768s5.214 13.495 12.373 14.768l176.284 31.362-54.033 54.033c-5.858 5.858-5.858 15.355 0 21.213 2.929 2.929 6.768 4.394 10.606 4.394s7.678-1.464 10.606-4.394l54.033-54.033 31.362 176.284c1.275 7.159 7.499 12.373 14.769 12.373z" fill="#8bbbfe"/></g></g><g><path d="m256 241-8.358 12.66v4.727l8.358 12.613c7.846 0 15.363-6.899 15-15-.364-8.127-6.591-15-15-15z" fill="#fecd2f"/><g><path d="m256 241c-7.846 0-15.363 6.899-15 15 .364 8.127 6.591 15 15 15z" fill="#fede54"/></g></g></g></svg>